<?xml version="1.0" ?>
<!-- Uploaded to: SVG Repo, www.svgrepo.com, Generator: SVG Repo Mixer Tools -->
<svg width="800px" height="800px" viewBox="0 0 24 24" version="1.1" xml:space="preserve" xmlns="http://www.w3.org/2000/svg" xmlns:xlink="http://www.w3.org/1999/xlink">
<style type="text/css">
	.st0{display:none;}
	.st1{display:inline;}
	.st2{opacity:0.2;fill:none;stroke:#000000;stroke-width:5.000000e-02;stroke-miterlimit:10;}
</style>
<g class="st0" id="grid_system"/>
<g id="_icons">
<path d="M19.7,4.3c-0.4-0.4-1-0.4-1.4,0L12,10.6V8c0-0.6-0.4-1-1-1s-1,0.4-1,1v5c0,0.1,0,0.3,0.1,0.4c0.1,0.2,0.3,0.4,0.5,0.5   C10.7,14,10.9,14,11,14h4.8c0.6,0,1-0.4,1-1s-0.4-1-1-1h-2.4l6.3-6.3C20.1,5.3,20.1,4.7,19.7,4.3z"/>
<path d="M12,4H8.5C6,4,4,6,4,8.5v7C4,18,6,20,8.5,20h7c2.5,0,4.5-2,4.5-4.5V12c0-0.6-0.4-1-1-1s-1,0.4-1,1v3.5   c0,1.4-1.1,2.5-2.5,2.5h-7C7.1,18,6,16.9,6,15.5v-7C6,7.1,7.1,6,8.5,6H12c0.6,0,1-0.4,1-1S12.6,4,12,4z"/>
</g>
</svg>